<?xml version="1.0" encoding="UTF-8"?>
<svg width="165px" height="97px" viewBox="0 0 165 97" version="1.1" xmlns="http://www.w3.org/2000/svg" xmlns:xlink="http://www.w3.org/1999/xlink">
    <!-- Generator: sketchtool 53.2 (72643) - https://sketchapp.com -->
    <title>CE7DEBDB-99C9-488C-AEA9-E6D87BFF872C</title>
    <desc>Created with sketchtool.</desc>
    <g id="Home" stroke="none" stroke-width="1" fill="none" fill-rule="evenodd">
        <g id="Home-4" transform="translate(-50.000000, -30.000000)" fill-rule="nonzero">
            <g id="Header">
                <g id="opt-2" transform="translate(20.000000, 0.000000)">
                    <g id="JIS-Logo---Vertical---Full-Color" transform="translate(30.000000, 30.000000)">
                        <g id="Group" transform="translate(59.619512, 0.000000)" fill="#014694">
                            <path d="M104.357805,43.3660976 C103.15122,37.1912195 98.0409756,32.8143902 94.3265854,30.07 C92.8597561,28.9817073 91.3456098,27.9407317 89.8787805,26.9470732 C88.0570732,25.6931707 86.1880488,24.4156098 84.4136585,23.0670732 C82.142439,21.3163415 79.8239024,19.4 78.4280488,16.8921951 C77.3160976,14.8812195 77.1741463,12.2787805 78.0495122,9.9602439 C78.9012195,7.71268293 80.5573171,5.98560976 82.6392683,5.22853659 C83.727561,4.82634146 84.8868293,4.63707317 86.0934146,4.63707317 C92.2446341,4.63707317 97.6860976,9.62902439 99.2239024,11.1431707 L99.6734146,11.5926829 L103.127561,3.33585366 L102.749024,3.1702439 C97.8043902,1.08829268 92.6468293,0 87.7968293,0 C87.0160976,0 86.2353659,0.0236585366 85.4782927,0.0946341463 C82.0241463,0.354878049 77.1504878,1.4904878 73.6253659,5.39414634 C70.6917073,8.63536585 68.1839024,13.9585366 69.8873171,19.2107317 C72.134878,26.1426829 78.3097561,30.07 83.7512195,33.5478049 C84.082439,33.7607317 84.4136585,33.9736585 84.7685366,34.1865854 C89.3582927,37.0965854 94.5868293,40.4087805 96.1719512,45.5663415 C97.1892683,48.8312195 96.3139024,52.2380488 93.8770732,54.6985366 C92.0080488,56.567561 89.5002439,57.537561 86.5902439,57.537561 C85.5019512,57.537561 84.3663415,57.3956098 83.2307317,57.1117073 C78.4990244,55.952439 74.3114634,52.9714634 71.5670732,50.8185366 L71.164878,50.5109756 L68.1129268,56.3309756 C68.0892683,56.3782927 68.0656098,56.4256098 68.0419512,56.4965854 L67.9473171,56.6858537 L67.9473171,56.6858537 C67.8053659,56.9460976 67.6634146,57.2063415 67.6634146,57.2063415 L69.5560976,58.3656098 L69.5560976,58.3656098 C75.2104878,61.8197561 81.5982927,62.695122 85.975122,62.8134146 C86.1880488,62.8134146 86.3773171,62.8134146 86.5902439,62.8134146 C91.534878,62.8134146 95.8170732,61.2992683 99.0582927,58.4839024 L99.0582927,58.4839024 C99.0582927,58.4839024 99.6260976,58.0343902 100.24122,57.3482927 L100.264878,57.3246341 C100.572439,56.9934146 100.88,56.6385366 101.187561,56.26 L101.21122,56.2363415 L101.21122,56.2363415 C101.51878,55.8578049 101.802683,55.4556098 102.086585,55.0297561 C104.42878,51.5519512 105.185854,47.6009756 104.357805,43.3660976 Z" id="Path"></path>
                            <path d="M46.867561,1.20658537 C46.867561,1.32487805 47.6482927,13.5090244 47.6719512,30.9453659 L47.6482927,31.3712195 C47.6482927,49.0204878 46.4180488,61.3939024 46.4180488,61.5121951 L46.3707317,61.9853659 L56.1890244,61.9853659 L56.1653659,61.5358537 C56.1653659,61.417561 55.3846341,49.2334146 55.3609756,31.7970732 L55.3609756,31.3712195 C55.3609756,13.7219512 56.5912195,1.34853659 56.5912195,1.20658537 L56.6385366,0.757073171 L46.8202439,0.757073171 L46.867561,1.20658537 Z" id="Path"></path>
                            <path d="M19.707561,0.757073171 L19.7312195,1.20658537 C19.7312195,1.27756098 19.9914634,8.9902439 20.2043902,20.8668293 C20.2043902,21.0087805 20.2753659,21.5056098 20.5829268,32.7670732 C20.6065854,33.6660976 20.5829268,34.6597561 20.5592683,35.6770732 L20.4882927,38.137561 L20.4882927,38.137561 L20.2517073,46.252439 C20.2517073,46.252439 20.2517073,46.4180488 20.2517073,46.7256098 C19.8495122,52.734878 19.0214634,56.2126829 18.3353659,58.1763415 C18.1934146,58.507561 18.0278049,58.8387805 17.8621951,59.17 C17.8621951,59.17 17.8385366,59.1936585 17.8385366,59.1936585 C17.7439024,59.4065854 17.6256098,59.6195122 17.5073171,59.832439 C17.4836585,59.8797561 17.4363415,59.9270732 17.4363415,59.9743902 C17.3417073,60.14 17.2234146,60.3292683 17.1287805,60.494878 C17.105122,60.5421951 17.0814634,60.5895122 17.0578049,60.6368293 C16.797561,61.0626829 16.5136585,61.4885366 16.2297561,61.9143902 C16.2060976,61.9617073 16.182439,61.9853659 16.1587805,62.0326829 C16.0404878,62.1982927 15.9221951,62.3639024 15.7802439,62.5295122 C15.7565854,62.5768293 15.7329268,62.6241463 15.6856098,62.6714634 C15.5436585,62.8607317 15.4253659,63.0263415 15.2597561,63.2156098 C15.2360976,63.2392683 15.2360976,63.2629268 15.212439,63.2629268 C15.0468293,63.4758537 14.8812195,63.665122 14.7156098,63.8780488 C14.7156098,63.9017073 14.6919512,63.9017073 14.6919512,63.9253659 C14.55,64.1146341 14.3843902,64.2802439 14.2187805,64.4695122 C14.195122,64.5168293 14.1478049,64.5404878 14.1241463,64.5878049 C13.9821951,64.7534146 13.8402439,64.8953659 13.6982927,65.0609756 C13.6746341,65.0846341 13.6509756,65.1319512 13.6273171,65.1556098 C13.272439,65.5341463 12.917561,65.9126829 12.5626829,66.267561 C12.5390244,66.2912195 12.5153659,66.314878 12.4917073,66.3385366 C12.3260976,66.4804878 12.1841463,66.6460976 12.0185366,66.7880488 C11.994878,66.8117073 11.947561,66.8353659 11.9239024,66.8826829 C11.5453659,67.237561 11.1668293,67.5687805 10.7882927,67.9 C10.7882927,67.9 10.7882927,67.9236585 10.7646341,67.9236585 C10.5753659,68.0892683 10.4097561,68.2312195 10.2204878,68.3968293 C10.1968293,68.4204878 10.1731707,68.4441463 10.1495122,68.4678049 C9.9602439,68.6097561 9.79463415,68.7753659 9.60536585,68.9173171 C9.60536585,68.9173171 9.60536585,68.9173171 9.58170732,68.9409756 C4.63707317,72.9392683 -1.70530257e-13,75.2341463 -1.70530257e-13,75.2341463 L1.96365854,79.1614634 C1.15926829,79.4690244 19.4946341,72.1821951 25.2673171,62.1746341 C26.9470732,58.6968293 28.2246341,55.0770732 28.484878,39.77 L28.484878,39.7463415 L28.484878,39.7226829 L28.9343902,20.724878 C29.2656098,8.9902439 29.4785366,1.34853659 29.4785366,1.27756098 L29.5021951,0.82804878 L19.707561,0.82804878 L19.707561,0.757073171 Z" id="Path"></path>
                        </g>
                        <g id="Group" transform="translate(0.236585, 0.709756)">
                            <path d="M22.5939024,18.4536585 L22.002439,14.7865854 C21.8841463,14.0058537 22.1443902,13.4853659 22.4046341,13.2014634 C22.7358537,12.8229268 23.2090244,12.5863415 23.7295122,12.5863415 C24.1317073,12.5863415 24.7231707,12.7282927 25.2436585,13.3670732 L27.5385366,16.2770732 C27.7278049,16.5136585 28.0353659,16.8921951 28.2246341,17.1287805 L30.4721951,20.0387805 C30.4958537,20.062439 30.4958537,20.0860976 30.5195122,20.1097561 C30.5904878,20.2043902 30.6614634,20.3226829 30.732439,20.4173171 C30.8034146,20.3226829 30.8743902,20.2043902 30.9453659,20.1097561 C30.9690244,20.0860976 30.9690244,20.062439 30.9926829,20.062439 L33.2402439,17.1287805 C33.4295122,16.8921951 33.7370732,16.5136585 33.9026829,16.2770732 L36.197561,13.3670732 C36.7180488,12.7282927 37.3095122,12.5863415 37.7117073,12.5863415 C38.2085366,12.5863415 38.7053659,12.7992683 39.0365854,13.2014634 C39.2968293,13.4853659 39.5570732,14.0058537 39.4387805,14.7865854 L38.8,18.43 C38.7526829,18.737561 38.6580488,19.2343902 38.6107317,19.5182927 L38.4214634,20.6302439 L44.2887805,14.7629268 C44.7382927,14.3134146 44.7382927,13.58 44.2887805,13.1304878 L31.5131707,0.354878049 C31.0636585,-0.0946341463 30.3302439,-0.0946341463 29.9043902,0.354878049 L17.1287805,13.1304878 C16.6792683,13.58 16.6792683,14.3134146 17.1287805,14.7629268 L22.9960976,20.6302439 L22.8068293,19.5182927 C22.7358537,19.2343902 22.6412195,18.737561 22.5939024,18.4536585" id="Path" fill="#FFDD00"></path>
                            <path d="M60.9680488,29.8570732 L48.192439,17.0814634 C47.7429268,16.6319512 47.0095122,16.6319512 46.56,17.0814634 L40.7163415,22.9487805 L41.8282927,22.7595122 C42.1358537,22.7121951 42.6090244,22.617561 42.9165854,22.5702439 L46.56,21.9787805 C46.7019512,21.955122 46.8202439,21.955122 46.9385366,21.955122 C47.7429268,21.955122 48.4053659,22.4282927 48.6419512,23.1380488 C48.8312195,23.7058537 48.7602439,24.557561 47.9558537,25.1963415 L45.0458537,27.4912195 C44.8329268,27.6568293 44.4780488,27.9407317 44.2414634,28.13 L44.1704878,28.1773171 L41.2604878,30.424878 C41.2368293,30.4485366 41.2131707,30.4721951 41.1658537,30.4721951 C41.0712195,30.5431707 40.9765854,30.6141463 40.8582927,30.685122 C40.9529268,30.7560976 41.047561,30.8270732 41.1421951,30.8980488 C41.1658537,30.9217073 41.1895122,30.9453659 41.2131707,30.9453659 L44.1468293,33.1929268 L44.2178049,33.2402439 C44.4543902,33.4295122 44.8092683,33.6897561 45.0221951,33.8790244 L47.9321951,36.1739024 C48.7602439,36.8126829 48.8312195,37.6643902 48.6182927,38.2558537 C48.3817073,38.9656098 47.6956098,39.4387805 46.914878,39.4387805 C46.7965854,39.4387805 46.6546341,39.4387805 46.5363415,39.415122 L42.8929268,38.8236585 C42.5853659,38.7763415 42.1121951,38.6817073 41.8046341,38.6343902 L40.6926829,38.445122 L46.56,44.312439 C47.0095122,44.7619512 47.7429268,44.7619512 48.192439,44.312439 L60.9680488,31.5368293 C61.417561,31.0163415 61.417561,30.3065854 60.9680488,29.8570732" id="Path" fill="#009640"></path>
                            <path d="M18.4773171,38.7526829 L14.8102439,39.3441463 C14.6682927,39.3678049 14.55,39.3678049 14.4317073,39.3678049 C13.6273171,39.3678049 12.964878,38.8946341 12.7282927,38.184878 C12.5390244,37.5934146 12.61,36.7653659 13.4143902,36.1265854 L16.3243902,33.8317073 C16.5609756,33.642439 16.9395122,33.334878 17.1997561,33.1456098 L20.1097561,30.8980488 C20.1334146,30.8743902 20.1570732,30.8507317 20.1807317,30.8507317 C20.2753659,30.7797561 20.37,30.7087805 20.4646341,30.6378049 C20.37,30.5668293 20.2517073,30.4958537 20.1807317,30.424878 C20.1570732,30.4012195 20.1334146,30.377561 20.1097561,30.377561 L17.1997561,28.1536585 C16.9631707,27.9643902 16.5609756,27.6568293 16.3243902,27.4912195 L13.4143902,25.1963415 C12.5863415,24.557561 12.5153659,23.7058537 12.7282927,23.1143902 C12.964878,22.4046341 13.6509756,21.9314634 14.4317073,21.9314634 C14.55,21.9314634 14.6919512,21.955122 14.8339024,21.955122 L18.5009756,22.5465854 C18.8085366,22.5939024 19.2817073,22.6885366 19.5892683,22.7358537 L20.7012195,22.925122 L14.8102439,17.0814634 C14.3607317,16.6319512 13.6273171,16.6319512 13.2014634,17.0814634 L0.425853659,29.8570732 C-0.0236585366,30.3065854 -0.0236585366,31.04 0.425853659,31.4895122 L13.2014634,44.265122 C13.6509756,44.7146341 14.3843902,44.7146341 14.8102439,44.265122 L20.677561,38.3978049 L19.5656098,38.5870732 C19.2817073,38.6343902 18.784878,38.7053659 18.4773171,38.7526829" id="Path" fill="#0075BF"></path>
                            <path d="M38.8,42.8692683 L39.3914634,46.5126829 C39.5097561,47.2934146 39.2495122,47.8139024 38.9892683,48.0978049 C38.6580488,48.4763415 38.184878,48.7129268 37.6643902,48.7129268 C37.2621951,48.7129268 36.6707317,48.5709756 36.1502439,47.9321951 L33.8553659,45.0221951 C33.6660976,44.7856098 33.3585366,44.4070732 33.1692683,44.1468293 L30.9217073,41.2368293 L30.9217073,41.2131707 L30.8980488,41.2131707 C30.8980488,41.2131707 30.8743902,41.1895122 30.8743902,41.1895122 C30.8034146,41.094878 30.732439,40.9765854 30.6614634,40.8819512 C30.5904878,40.9765854 30.5195122,41.094878 30.4485366,41.1895122 C30.424878,41.2131707 30.424878,41.2368293 30.4012195,41.2604878 L28.1536585,44.1941463 C27.9643902,44.4307317 27.6804878,44.8092683 27.4912195,45.0458537 L25.22,47.9558537 C24.6995122,48.5946341 24.1080488,48.7365854 23.7058537,48.7365854 C23.2090244,48.7365854 22.7121951,48.5236585 22.3809756,48.1214634 C22.1443902,47.837561 21.8604878,47.3170732 21.9787805,46.5363415 L22.5702439,42.8692683 C22.617561,42.5617073 22.7121951,42.0885366 22.7595122,41.7809756 L22.9487805,40.6690244 L17.0814634,46.5363415 C16.6319512,46.9858537 16.6319512,47.7192683 17.0814634,48.145122 L29.8570732,60.9207317 C30.3065854,61.3702439 31.0163415,61.3702439 31.4658537,60.9207317 L44.2414634,48.145122 C44.6909756,47.6956098 44.6909756,46.9858537 44.2414634,46.5363415 L38.3741463,40.6690244 L38.5634146,41.7809756 C38.6580488,42.0885366 38.7526829,42.5853659 38.8,42.8692683" id="Path" fill="#EC6608"></path>
                            <path d="M34.7543902,30.6614634 C34.7543902,32.8853659 32.9563415,34.7070732 30.7087805,34.7070732 C28.484878,34.7070732 26.6631707,32.8853659 26.6631707,30.6614634 C26.6631707,28.437561 28.4612195,26.6158537 30.7087805,26.6158537 C32.9326829,26.6158537 34.7543902,28.437561 34.7543902,30.6614634" id="Path" fill="#014694"></path>
                            <path d="M14.4553659,23.8714634 L17.3653659,26.1663415 C17.6019512,26.3556098 17.9804878,26.6395122 18.2170732,26.8287805 L21.1270732,29.0763415 C21.1507317,29.1 21.1507317,29.1 21.1743902,29.1 C21.4346341,29.3365854 21.7658537,29.5258537 22.1207317,29.6914634 C23.6585366,30.377561 25.3382927,29.9517073 25.882439,28.745122 C26.4029268,27.5385366 25.574878,26.0243902 24.0370732,25.3382927 C23.6821951,25.1963415 23.3273171,25.0780488 22.972439,25.0543902 C22.9487805,25.0543902 22.9487805,25.0543902 22.925122,25.0307317 L19.2817073,24.3919512 C18.9978049,24.3446341 18.5009756,24.25 18.2170732,24.2263415 L14.5736585,23.634878 C14.2660976,23.587561 14.2187805,23.6821951 14.4553659,23.8714634" id="Path" fill="#014694"></path>
                            <path d="M21.1980488,32.2229268 C21.1743902,32.2465854 21.1507317,32.2465854 21.1507317,32.2702439 L18.2170732,34.4941463 C17.9804878,34.6834146 17.6019512,34.9673171 17.3653659,35.1565854 L14.4553659,37.4514634 C14.2187805,37.6407317 14.2660976,37.7590244 14.5736585,37.6880488 L18.2170732,37.0965854 C18.5009756,37.0492683 18.9978049,36.9782927 19.2817073,36.9309756 L22.925122,36.2921951 C22.9487805,36.2921951 22.972439,36.2921951 22.972439,36.2685366 C23.3273171,36.2212195 23.6821951,36.1265854 24.0370732,35.9609756 C25.574878,35.274878 26.4029268,33.7607317 25.882439,32.5541463 C25.3619512,31.347561 23.6821951,30.9217073 22.1207317,31.6078049 C21.7658537,31.7734146 21.4582927,31.9863415 21.1980488,32.2229268" id="Path" fill="#014694"></path>
                            <path d="M46.9385366,37.4514634 L44.0285366,35.1565854 C43.7919512,34.9673171 43.4134146,34.6834146 43.1768293,34.4941463 L40.2431707,32.2465854 C40.2195122,32.2229268 40.2195122,32.2229268 40.1958537,32.1992683 C39.9119512,31.9626829 39.6043902,31.7734146 39.2495122,31.6078049 C37.7117073,30.9217073 36.0319512,31.347561 35.4878049,32.5541463 C34.9673171,33.7607317 35.7717073,35.274878 37.3331707,35.9609756 C37.6880488,36.1265854 38.0429268,36.2212195 38.3978049,36.2685366 C38.4214634,36.2685366 38.445122,36.2685366 38.4687805,36.2921951 L42.1121951,36.9309756 C42.3960976,36.9782927 42.8929268,37.0729268 43.1768293,37.0965854 L46.8439024,37.6880488 C47.1278049,37.7590244 47.175122,37.6407317 46.9385366,37.4514634" id="Path" fill="#014694"></path>
                            <path d="M40.2195122,29.1 C40.2431707,29.1 40.2431707,29.0763415 40.2668293,29.0763415 L43.2004878,26.8287805 C43.4370732,26.6395122 43.8156098,26.3556098 44.0521951,26.1663415 L46.9621951,23.8714634 C47.1987805,23.6821951 47.1514634,23.587561 46.867561,23.634878 L43.2004878,24.2263415 C42.9165854,24.2736585 42.4197561,24.3446341 42.1358537,24.3919512 L38.492439,25.0307317 C38.4687805,25.0307317 38.445122,25.0307317 38.4214634,25.0543902 C38.0665854,25.1017073 37.7117073,25.1963415 37.3568293,25.3382927 C35.8190244,26.0243902 34.9909756,27.5385366 35.5114634,28.745122 C36.0319512,29.9517073 37.7117073,30.377561 39.2731707,29.6914634 C39.6280488,29.5495122 39.9356098,29.3365854 40.2195122,29.1" id="Path" fill="#014694"></path>
                            <path d="M23.9187805,46.914878 L26.2136585,44.004878 C26.4029268,43.7682927 26.6868293,43.3897561 26.8760976,43.1531707 L29.1,40.2195122 C29.1236585,40.1958537 29.1236585,40.1958537 29.1473171,40.1721951 C29.3839024,39.8882927 29.5731707,39.5807317 29.7387805,39.2258537 C30.424878,37.6880488 29.9990244,36.0082927 28.792439,35.4641463 C27.5858537,34.92 26.0717073,35.7480488 25.3856098,37.2858537 C25.2436585,37.6407317 25.1253659,37.9956098 25.1017073,38.3504878 C25.1017073,38.3741463 25.1017073,38.3978049 25.0780488,38.4214634 L24.4392683,42.064878 C24.3919512,42.372439 24.2973171,42.8456098 24.25,43.1295122 L23.6585366,46.7729268 C23.6112195,47.0804878 23.7295122,47.1514634 23.9187805,46.914878" id="Path" fill="#014694"></path>
                            <path d="M32.2465854,40.1721951 C32.2465854,40.1958537 32.2702439,40.1958537 32.2702439,40.2195122 L34.5178049,43.1531707 C34.7070732,43.3897561 34.9909756,43.7682927 35.1802439,44.004878 L37.475122,46.914878 C37.6643902,47.1514634 37.7826829,47.1041463 37.7117073,46.8202439 L37.1202439,43.1768293 C37.0729268,42.8692683 37.0019512,42.3960976 36.9546341,42.1121951 L36.3158537,38.4687805 C36.3158537,38.445122 36.3158537,38.4214634 36.3158537,38.3978049 C36.2685366,38.0429268 36.1739024,37.6880488 36.0319512,37.3331707 C35.3458537,35.7953659 33.8317073,34.9673171 32.625122,35.5114634 C31.4185366,36.0319512 30.9926829,37.7117073 31.6787805,39.2731707 C31.8207317,39.5807317 32.01,39.8882927 32.2465854,40.1721951" id="Path" fill="#014694"></path>
                            <path d="M37.4987805,14.4080488 L35.2039024,17.3180488 C35.0146341,17.5546341 34.7307317,17.9331707 34.5414634,18.1697561 L32.2939024,21.0797561 C32.2702439,21.1034146 32.2702439,21.1034146 32.2702439,21.1270732 C32.0336585,21.4109756 31.8443902,21.7185366 31.6787805,22.0734146 C30.9926829,23.6112195 31.4185366,25.2909756 32.625122,25.835122 C33.8317073,26.3556098 35.3458537,25.5512195 36.0319512,23.9897561 C36.1739024,23.634878 36.2921951,23.28 36.3158537,22.925122 C36.3158537,22.9014634 36.3158537,22.8778049 36.3158537,22.8541463 L36.9546341,19.2107317 C37.0019512,18.9268293 37.0729268,18.4536585 37.1202439,18.1460976 L37.7117073,14.5026829 C37.7826829,14.2187805 37.6643902,14.1714634 37.4987805,14.4080488" id="Path" fill="#014694"></path>
                            <path d="M29.1473171,21.1507317 C29.1473171,21.1270732 29.1236585,21.1270732 29.1,21.1034146 L26.852439,18.1697561 C26.6631707,17.9331707 26.3792683,17.5546341 26.19,17.3180488 L23.895122,14.4080488 C23.7058537,14.1714634 23.587561,14.2187805 23.634878,14.5263415 L24.2263415,18.1697561 C24.2736585,18.4536585 24.3682927,18.9504878 24.4156098,19.2343902 L25.0543902,22.8778049 C25.0543902,22.9014634 25.0543902,22.925122 25.0780488,22.9487805 C25.1253659,23.3036585 25.22,23.6585366 25.3619512,24.0134146 C26.0480488,25.5512195 27.5621951,26.3792683 28.7687805,25.8587805 C29.9753659,25.3382927 30.4012195,23.6585366 29.715122,22.0970732 C29.5731707,21.7421951 29.3839024,21.4109756 29.1473171,21.1507317" id="Path" fill="#014694"></path>
                        </g>
                        <g id="Group" transform="translate(0.000000, 86.353659)" fill="#014694">
                            <path d="M5.82,7.73634146 C5.82,8.06756098 5.77268293,8.39878049 5.67804878,8.73 C5.58341463,9.06121951 5.41780488,9.34512195 5.18121951,9.60536585 C4.94463415,9.86560976 4.66073171,10.0785366 4.28219512,10.2204878 C3.90365854,10.3860976 3.4304878,10.4570732 2.88634146,10.4570732 C1.96365854,10.4570732 1.25390244,10.2204878 0.757073171,9.72365854 C0.260243902,9.22682927 0,8.49341463 0,7.57073171 L0,6.95560976 L1.32487805,6.95560976 L1.32487805,7.38146341 C1.32487805,7.66536585 1.34853659,7.92560976 1.39585366,8.16219512 C1.44317073,8.39878049 1.51414634,8.61170732 1.63243902,8.77731707 C1.75073171,8.94292683 1.91634146,9.08487805 2.12926829,9.1795122 C2.34219512,9.27414634 2.60243902,9.32146341 2.93365854,9.32146341 C3.52512195,9.32146341 3.95097561,9.15585366 4.18756098,8.82463415 C4.42414634,8.49341463 4.51878049,8.06756098 4.51878049,7.52341463 L4.51878049,0.260243902 L5.84365854,0.260243902 L5.84365854,7.73634146 L5.82,7.73634146 Z" id="Path"></path>
                            <path d="M13.9112195,10.1968293 C13.6982927,10.315122 13.4143902,10.3860976 13.0595122,10.3860976 C12.7519512,10.3860976 12.5153659,10.2914634 12.3260976,10.1258537 C12.1368293,9.9602439 12.0658537,9.67634146 12.0658537,9.27414634 C11.7346341,9.65268293 11.3560976,9.93658537 10.9302439,10.1258537 C10.5043902,10.2914634 10.0312195,10.3860976 9.53439024,10.3860976 C9.20317073,10.3860976 8.89560976,10.3387805 8.61170732,10.2678049 C8.32780488,10.1968293 8.06756098,10.0785366 7.85463415,9.91292683 C7.64170732,9.74731707 7.47609756,9.53439024 7.35780488,9.29780488 C7.2395122,9.03756098 7.16853659,8.73 7.16853659,8.37512195 C7.16853659,7.97292683 7.2395122,7.64170732 7.38146341,7.38146341 C7.52341463,7.12121951 7.71268293,6.90829268 7.92560976,6.76634146 C8.16219512,6.60073171 8.42243902,6.48243902 8.70634146,6.38780488 C8.9902439,6.29317073 9.29780488,6.22219512 9.60536585,6.17487805 C9.93658537,6.10390244 10.2441463,6.05658537 10.5280488,6.03292683 C10.8119512,6.00926829 11.0721951,5.96195122 11.3087805,5.89097561 C11.5217073,5.82 11.7109756,5.74902439 11.8292683,5.63073171 C11.947561,5.51243902 12.0185366,5.34682927 12.0185366,5.13390244 C12.0185366,4.87365854 11.9712195,4.66073171 11.8765854,4.51878049 C11.7819512,4.35317073 11.6636585,4.23487805 11.4980488,4.16390244 C11.3560976,4.06926829 11.1668293,4.02195122 10.977561,3.99829268 C10.7882927,3.97463415 10.5990244,3.95097561 10.4097561,3.95097561 C9.91292683,3.95097561 9.48707317,4.04560976 9.15585366,4.23487805 C8.82463415,4.42414634 8.63536585,4.77902439 8.61170732,5.32317073 L7.42878049,5.32317073 C7.45243902,4.87365854 7.54707317,4.49512195 7.71268293,4.18756098 C7.87829268,3.88 8.09121951,3.64341463 8.37512195,3.45414634 C8.65902439,3.26487805 8.96658537,3.12292683 9.34512195,3.05195122 C9.7,2.95731707 10.0785366,2.93365854 10.4807317,2.93365854 C10.8119512,2.93365854 11.1195122,2.95731707 11.4507317,3.00463415 C11.7819512,3.05195122 12.0658537,3.14658537 12.3260976,3.28853659 C12.5863415,3.4304878 12.7992683,3.64341463 12.9412195,3.90365854 C13.1068293,4.16390244 13.1778049,4.49512195 13.1778049,4.92097561 L13.1778049,8.61170732 C13.1778049,8.89560976 13.2014634,9.08487805 13.225122,9.22682927 C13.2487805,9.34512195 13.3670732,9.41609756 13.5563415,9.41609756 C13.6746341,9.41609756 13.7929268,9.39243902 13.9112195,9.34512195 L13.9112195,10.1968293 L13.9112195,10.1968293 Z M11.994878,6.50609756 C11.8765854,6.60073171 11.7346341,6.64804878 11.5690244,6.69536585 C11.4034146,6.74268293 11.2141463,6.79 11.0485366,6.81365854 C10.8592683,6.83731707 10.67,6.88463415 10.4570732,6.90829268 C10.2441463,6.93195122 10.054878,6.95560976 9.84195122,7.00292683 C9.65268293,7.0502439 9.46341463,7.09756098 9.27414634,7.14487805 C9.10853659,7.19219512 8.94292683,7.28682927 8.82463415,7.38146341 C8.70634146,7.47609756 8.58804878,7.59439024 8.51707317,7.76 C8.44609756,7.90195122 8.39878049,8.09121951 8.39878049,8.32780488 C8.39878049,8.51707317 8.44609756,8.68268293 8.51707317,8.82463415 C8.58804878,8.96658537 8.70634146,9.06121951 8.82463415,9.15585366 C8.94292683,9.2504878 9.08487805,9.29780488 9.27414634,9.34512195 C9.4397561,9.39243902 9.60536585,9.39243902 9.79463415,9.39243902 C10.1731707,9.39243902 10.5280488,9.34512195 10.7882927,9.22682927 C11.0721951,9.13219512 11.285122,8.9902439 11.4743902,8.82463415 C11.64,8.65902439 11.7819512,8.49341463 11.8529268,8.30414634 C11.947561,8.11487805 11.9712195,7.92560976 11.9712195,7.76 L11.9712195,6.50609756 L11.994878,6.50609756 Z" id="Shape"></path>
                            <polygon id="Path" points="14.8812195 0.307560976 16.0641463 0.307560976 16.0641463 6.17487805 19.3526829 3.02829268 20.9378049 3.02829268 18.075122 5.65439024 21.1507317 10.2204878 19.6365854 10.2204878 17.1760976 6.45878049 16.0641463 7.4997561 16.0641463 10.2204878 14.8812195 10.2204878"></polygon>
                            <path d="M28.1536585,10.1968293 C27.9407317,10.315122 27.6568293,10.3860976 27.3019512,10.3860976 C26.9943902,10.3860976 26.7578049,10.2914634 26.5685366,10.1258537 C26.3792683,9.9602439 26.3082927,9.67634146 26.3082927,9.27414634 C25.9770732,9.65268293 25.5985366,9.93658537 25.1726829,10.1258537 C24.7468293,10.2914634 24.2736585,10.3860976 23.7768293,10.3860976 C23.4456098,10.3860976 23.1380488,10.3387805 22.8541463,10.2678049 C22.5702439,10.1968293 22.31,10.0785366 22.0970732,9.91292683 C21.8841463,9.74731707 21.7185366,9.53439024 21.6002439,9.29780488 C21.4819512,9.03756098 21.4109756,8.73 21.4109756,8.37512195 C21.4109756,7.97292683 21.4819512,7.64170732 21.6239024,7.38146341 C21.7658537,7.12121951 21.955122,6.90829268 22.1680488,6.76634146 C22.4046341,6.60073171 22.664878,6.48243902 22.9487805,6.38780488 C23.2326829,6.29317073 23.5402439,6.22219512 23.8478049,6.17487805 C24.1790244,6.10390244 24.4865854,6.05658537 24.7704878,6.03292683 C25.0543902,6.00926829 25.3146341,5.96195122 25.5512195,5.89097561 C25.7641463,5.82 25.9534146,5.74902439 26.0717073,5.63073171 C26.19,5.51243902 26.2609756,5.34682927 26.2609756,5.13390244 C26.2609756,4.87365854 26.2136585,4.66073171 26.1190244,4.51878049 C26.0243902,4.35317073 25.9060976,4.23487805 25.7404878,4.16390244 C25.5985366,4.06926829 25.4092683,4.02195122 25.22,3.99829268 C25.0307317,3.97463415 24.8414634,3.95097561 24.6521951,3.95097561 C24.1553659,3.95097561 23.7295122,4.04560976 23.3982927,4.23487805 C23.0670732,4.42414634 22.8778049,4.77902439 22.8541463,5.32317073 L21.6712195,5.32317073 C21.694878,4.87365854 21.7895122,4.49512195 21.955122,4.18756098 C22.1207317,3.88 22.3336585,3.64341463 22.617561,3.45414634 C22.9014634,3.26487805 23.2090244,3.12292683 23.587561,3.05195122 C23.942439,2.95731707 24.3209756,2.93365854 24.7231707,2.93365854 C25.0543902,2.93365854 25.3619512,2.95731707 25.6931707,3.00463415 C26.0243902,3.05195122 26.3082927,3.14658537 26.5685366,3.28853659 C26.8287805,3.4304878 27.0417073,3.64341463 27.1836585,3.90365854 C27.3492683,4.16390244 27.4202439,4.49512195 27.4202439,4.92097561 L27.4202439,8.61170732 C27.4202439,8.89560976 27.4439024,9.08487805 27.467561,9.22682927 C27.4912195,9.34512195 27.6095122,9.41609756 27.7987805,9.41609756 C27.9170732,9.41609756 28.0353659,9.39243902 28.1536585,9.34512195 L28.1536585,10.1968293 L28.1536585,10.1968293 Z M26.2373171,6.50609756 C26.1190244,6.60073171 25.9770732,6.64804878 25.8114634,6.69536585 C25.6458537,6.74268293 25.4565854,6.79 25.2909756,6.81365854 C25.1017073,6.83731707 24.912439,6.88463415 24.6995122,6.90829268 C24.4865854,6.93195122 24.2973171,6.95560976 24.0843902,7.00292683 C23.895122,7.0502439 23.7058537,7.09756098 23.5165854,7.14487805 C23.3509756,7.19219512 23.1853659,7.28682927 23.0670732,7.38146341 C22.9487805,7.47609756 22.8304878,7.59439024 22.7595122,7.76 C22.6885366,7.90195122 22.6412195,8.09121951 22.6412195,8.32780488 C22.6412195,8.51707317 22.6885366,8.68268293 22.7595122,8.82463415 C22.8304878,8.96658537 22.9487805,9.06121951 23.0670732,9.15585366 C23.1853659,9.2504878 23.3273171,9.29780488 23.5165854,9.34512195 C23.6821951,9.39243902 23.8478049,9.39243902 24.0370732,9.39243902 C24.4156098,9.39243902 24.7704878,9.34512195 25.0307317,9.22682927 C25.3146341,9.13219512 25.527561,8.9902439 25.7168293,8.82463415 C25.882439,8.65902439 26.0243902,8.49341463 26.0953659,8.30414634 C26.19,8.11487805 26.2136585,7.92560976 26.2136585,7.76 L26.2136585,6.50609756 L26.2373171,6.50609756 Z" id="Shape"></path>
                            <path d="M29.1,3.02829268 L30.2119512,3.02829268 L30.2119512,4.54243902 L30.2356098,4.54243902 C30.5195122,3.95097561 30.8743902,3.52512195 31.3002439,3.24121951 C31.7260976,2.95731707 32.2465854,2.83902439 32.8853659,2.86268293 L32.8853659,4.11658537 C32.4121951,4.11658537 32.01,4.18756098 31.6787805,4.30585366 C31.347561,4.42414634 31.0873171,4.63707317 30.8743902,4.87365854 C30.6614634,5.13390244 30.5195122,5.44146341 30.424878,5.79634146 C30.3302439,6.15121951 30.2829268,6.57707317 30.2829268,7.02658537 L30.2829268,10.2204878 L29.1,10.2204878 L29.1,3.02829268 Z" id="Path"></path>
                            <path d="M35.6770732,3.02829268 L37.1202439,3.02829268 L37.1202439,4.06926829 L35.6770732,4.06926829 L35.6770732,8.54073171 C35.6770732,8.68268293 35.6770732,8.80097561 35.7007317,8.87195122 C35.7243902,8.96658537 35.7717073,9.01390244 35.8426829,9.06121951 C35.9136585,9.10853659 36.0082927,9.13219512 36.1029268,9.15585366 C36.2212195,9.1795122 36.3631707,9.1795122 36.552439,9.1795122 L37.0965854,9.1795122 L37.0965854,10.2204878 L36.197561,10.2204878 C35.89,10.2204878 35.6297561,10.1968293 35.4168293,10.1495122 C35.2039024,10.1021951 35.0146341,10.0312195 34.8963415,9.91292683 C34.7543902,9.79463415 34.6597561,9.65268293 34.5887805,9.4397561 C34.5178049,9.22682927 34.4941463,8.96658537 34.4941463,8.63536585 L34.4941463,4.06926829 L33.2639024,4.06926829 L33.2639024,3.02829268 L34.4941463,3.02829268 L34.4941463,0.875365854 L35.6770732,0.875365854 L35.6770732,3.02829268 L35.6770732,3.02829268 Z" id="Path"></path>
                            <path d="M44.62,10.1968293 C44.4070732,10.315122 44.1231707,10.3860976 43.7682927,10.3860976 C43.4607317,10.3860976 43.2241463,10.2914634 43.034878,10.1258537 C42.8456098,9.9602439 42.7746341,9.67634146 42.7746341,9.27414634 C42.4434146,9.65268293 42.064878,9.93658537 41.6390244,10.1258537 C41.2131707,10.2914634 40.74,10.3860976 40.2431707,10.3860976 C39.9119512,10.3860976 39.6043902,10.3387805 39.3204878,10.2678049 C39.0365854,10.1968293 38.7763415,10.0785366 38.5634146,9.91292683 C38.3504878,9.74731707 38.184878,9.53439024 38.0665854,9.29780488 C37.9482927,9.03756098 37.8773171,8.73 37.8773171,8.37512195 C37.8773171,7.97292683 37.9482927,7.64170732 38.0902439,7.38146341 C38.2321951,7.12121951 38.4214634,6.90829268 38.6343902,6.76634146 C38.8709756,6.60073171 39.1312195,6.48243902 39.415122,6.38780488 C39.6990244,6.29317073 40.0065854,6.22219512 40.3141463,6.17487805 C40.6453659,6.10390244 40.9529268,6.05658537 41.2368293,6.03292683 C41.5207317,6.00926829 41.7809756,5.96195122 42.017561,5.89097561 C42.2304878,5.82 42.4197561,5.74902439 42.5380488,5.63073171 C42.6563415,5.51243902 42.7273171,5.34682927 42.7273171,5.13390244 C42.7273171,4.87365854 42.68,4.66073171 42.5853659,4.51878049 C42.4907317,4.35317073 42.372439,4.23487805 42.2068293,4.16390244 C42.064878,4.06926829 41.8756098,4.02195122 41.6863415,3.99829268 C41.4970732,3.97463415 41.3078049,3.95097561 41.1185366,3.95097561 C40.6217073,3.95097561 40.1958537,4.04560976 39.8646341,4.23487805 C39.5334146,4.42414634 39.3441463,4.77902439 39.3204878,5.32317073 L38.137561,5.32317073 C38.1612195,4.87365854 38.2558537,4.49512195 38.4214634,4.18756098 C38.5870732,3.88 38.8,3.64341463 39.0839024,3.45414634 C39.3678049,3.26487805 39.6753659,3.12292683 40.0539024,3.05195122 C40.4087805,2.95731707 40.7873171,2.93365854 41.1895122,2.93365854 C41.5207317,2.93365854 41.8282927,2.95731707 42.1595122,3.00463415 C42.4907317,3.05195122 42.7746341,3.14658537 43.034878,3.28853659 C43.295122,3.4304878 43.5080488,3.64341463 43.65,3.90365854 C43.8156098,4.16390244 43.8865854,4.49512195 43.8865854,4.92097561 L43.8865854,8.61170732 C43.8865854,8.89560976 43.9102439,9.08487805 43.9339024,9.22682927 C43.957561,9.34512195 44.0758537,9.41609756 44.265122,9.41609756 C44.3834146,9.41609756 44.5017073,9.39243902 44.62,9.34512195 L44.62,10.1968293 L44.62,10.1968293 Z M42.7036585,6.50609756 C42.5853659,6.60073171 42.4434146,6.64804878 42.2778049,6.69536585 C42.1121951,6.74268293 41.9229268,6.79 41.7573171,6.81365854 C41.5680488,6.83731707 41.3787805,6.88463415 41.1658537,6.90829268 C40.9529268,6.93195122 40.7636585,6.95560976 40.5507317,7.00292683 C40.3614634,7.0502439 40.1721951,7.09756098 39.9829268,7.14487805 C39.8173171,7.19219512 39.6517073,7.28682927 39.5334146,7.38146341 C39.415122,7.47609756 39.2968293,7.59439024 39.2258537,7.76 C39.154878,7.90195122 39.107561,8.09121951 39.107561,8.32780488 C39.107561,8.51707317 39.154878,8.68268293 39.2258537,8.82463415 C39.2968293,8.96658537 39.415122,9.06121951 39.5334146,9.15585366 C39.6517073,9.2504878 39.7936585,9.29780488 39.9829268,9.34512195 C40.1485366,9.39243902 40.3141463,9.39243902 40.5034146,9.39243902 C40.8819512,9.39243902 41.2368293,9.34512195 41.4970732,9.22682927 C41.7809756,9.13219512 41.9939024,8.9902439 42.1831707,8.82463415 C42.3487805,8.65902439 42.4907317,8.49341463 42.5617073,8.30414634 C42.6563415,8.11487805 42.68,7.92560976 42.68,7.76 L42.68,6.50609756 L42.7036585,6.50609756 Z" id="Shape"></path>
                            <rect id="Rectangle" x="49.8485366" y="0.307560976" width="1.32487805" height="9.93658537"></rect>
                            <path d="M52.9241463,3.02829268 L54.0360976,3.02829268 L54.0360976,4.16390244 L54.0597561,4.16390244 C54.32,3.71439024 54.627561,3.38317073 55.0297561,3.1702439 C55.4319512,2.95731707 55.8814634,2.83902439 56.4019512,2.83902439 C56.875122,2.83902439 57.2773171,2.91 57.584878,3.02829268 C57.892439,3.14658537 58.1526829,3.33585366 58.3419512,3.57243902 C58.5312195,3.80902439 58.6731707,4.06926829 58.7441463,4.4004878 C58.815122,4.73170732 58.862439,5.08658537 58.862439,5.46512195 L58.862439,10.1968293 L57.6795122,10.1968293 L57.6795122,5.32317073 C57.6795122,4.87365854 57.5612195,4.51878049 57.3009756,4.25853659 C57.0407317,3.99829268 56.6858537,3.88 56.2363415,3.88 C55.8814634,3.88 55.5502439,3.92731707 55.29,4.04560976 C55.0297561,4.16390244 54.8168293,4.30585366 54.627561,4.51878049 C54.4619512,4.73170732 54.32,4.96829268 54.2253659,5.22853659 C54.1307317,5.51243902 54.0834146,5.79634146 54.0834146,6.12756098 L54.0834146,10.1968293 L52.9004878,10.1968293 L52.9004878,3.02829268 L52.9241463,3.02829268 Z" id="Path"></path>
                            <path d="M62.0090244,3.02829268 L63.4521951,3.02829268 L63.4521951,4.06926829 L62.0090244,4.06926829 L62.0090244,8.54073171 C62.0090244,8.68268293 62.0090244,8.80097561 62.0326829,8.87195122 C62.0563415,8.96658537 62.1036585,9.01390244 62.1746341,9.06121951 C62.2456098,9.10853659 62.3402439,9.13219512 62.434878,9.15585366 C62.5531707,9.1795122 62.695122,9.1795122 62.8843902,9.1795122 L63.4285366,9.1795122 L63.4285366,10.2204878 L62.5295122,10.2204878 C62.2219512,10.2204878 61.9617073,10.1968293 61.7487805,10.1495122 C61.5358537,10.1021951 61.3465854,10.0312195 61.2282927,9.91292683 C61.0863415,9.79463415 60.9917073,9.65268293 60.9207317,9.4397561 C60.8497561,9.22682927 60.8260976,8.96658537 60.8260976,8.63536585 L60.8260976,4.06926829 L59.5958537,4.06926829 L59.5958537,3.02829268 L60.8260976,3.02829268 L60.8260976,0.875365854 L62.0090244,0.875365854 L62.0090244,3.02829268 L62.0090244,3.02829268 Z" id="Path"></path>
                            <path d="M70.4078049,7.94926829 C70.2421951,8.75365854 69.9109756,9.34512195 69.3668293,9.77097561 C68.8226829,10.1968293 68.1602439,10.3860976 67.3321951,10.3860976 C66.7643902,10.3860976 66.267561,10.2914634 65.8417073,10.1021951 C65.4158537,9.91292683 65.0609756,9.65268293 64.7770732,9.32146341 C64.4931707,8.9902439 64.2802439,8.58804878 64.1382927,8.11487805 C63.9963415,7.64170732 63.9017073,7.14487805 63.9017073,6.60073171 C63.9017073,6.05658537 63.9963415,5.5597561 64.1619512,5.1102439 C64.327561,4.66073171 64.5641463,4.25853659 64.8717073,3.92731707 C65.1792683,3.59609756 65.5341463,3.33585366 65.9363415,3.14658537 C66.3385366,2.95731707 66.8117073,2.86268293 67.284878,2.86268293 C67.9236585,2.86268293 68.4441463,3.00463415 68.87,3.26487805 C69.2958537,3.52512195 69.6270732,3.85634146 69.8873171,4.28219512 C70.147561,4.68439024 70.3131707,5.13390244 70.4078049,5.60707317 C70.502439,6.0802439 70.5497561,6.55341463 70.5260976,6.97926829 L65.1556098,6.97926829 C65.1556098,7.28682927 65.1792683,7.59439024 65.2739024,7.87829268 C65.3685366,8.16219512 65.4868293,8.42243902 65.6760976,8.63536585 C65.8653659,8.84829268 66.1019512,9.03756098 66.3858537,9.15585366 C66.6697561,9.27414634 67.0009756,9.34512195 67.4031707,9.34512195 C67.9,9.34512195 68.3021951,9.22682927 68.6334146,8.9902439 C68.9646341,8.75365854 69.177561,8.39878049 69.2721951,7.92560976 L70.4078049,7.92560976 L70.4078049,7.94926829 Z M69.2721951,5.93829268 C69.2485366,5.65439024 69.2012195,5.39414634 69.0829268,5.15756098 C68.9646341,4.89731707 68.8226829,4.68439024 68.6570732,4.51878049 C68.4678049,4.3295122 68.254878,4.18756098 68.0182927,4.09292683 C67.7580488,3.97463415 67.4978049,3.92731707 67.2139024,3.92731707 C66.9063415,3.92731707 66.622439,3.97463415 66.3858537,4.09292683 C66.1492683,4.18756098 65.9363415,4.35317073 65.7470732,4.54243902 C65.5814634,4.73170732 65.4395122,4.94463415 65.3212195,5.18121951 C65.2265854,5.41780488 65.1556098,5.67804878 65.1319512,5.96195122 L69.2721951,5.96195122 L69.2721951,5.93829268 Z" id="Shape"></path>
                            <path d="M71.5907317,3.02829268 L72.7026829,3.02829268 L72.7026829,4.54243902 L72.7263415,4.54243902 C73.0102439,3.95097561 73.365122,3.52512195 73.7909756,3.24121951 C74.2168293,2.95731707 74.7373171,2.83902439 75.3760976,2.86268293 L75.3760976,4.11658537 C74.9029268,4.11658537 74.5007317,4.18756098 74.1695122,4.30585366 C73.8382927,4.42414634 73.5780488,4.63707317 73.365122,4.87365854 C73.1521951,5.13390244 73.0102439,5.44146341 72.9156098,5.79634146 C72.8209756,6.15121951 72.7736585,6.57707317 72.7736585,7.02658537 L72.7736585,10.2204878 L71.5907317,10.2204878 L71.5907317,3.02829268 Z" id="Path"></path>
                            <path d="M80.9358537,5.34682927 C80.8412195,4.89731707 80.6519512,4.54243902 80.3443902,4.28219512 C80.0368293,4.02195122 79.6582927,3.90365854 79.1614634,3.90365854 C78.7356098,3.90365854 78.3807317,3.97463415 78.0968293,4.1402439 C77.8129268,4.30585366 77.5763415,4.49512195 77.4107317,4.75536585 C77.245122,5.01560976 77.1268293,5.32317073 77.0321951,5.65439024 C76.9612195,5.98560976 76.9139024,6.3404878 76.9139024,6.69536585 C76.9139024,7.02658537 76.9612195,7.35780488 77.0321951,7.66536585 C77.1031707,7.97292683 77.245122,8.25682927 77.4107317,8.51707317 C77.5763415,8.75365854 77.7892683,8.96658537 78.0495122,9.10853659 C78.3097561,9.2504878 78.6409756,9.32146341 79.0195122,9.32146341 C79.5873171,9.32146341 80.0368293,9.15585366 80.3917073,8.84829268 C80.7229268,8.54073171 80.9358537,8.11487805 81.0068293,7.57073171 L82.2134146,7.57073171 C82.095122,8.44609756 81.7402439,9.13219512 81.2197561,9.62902439 C80.6756098,10.1258537 79.9658537,10.362439 79.0431707,10.362439 C78.4990244,10.362439 78.0021951,10.2678049 77.6,10.1021951 C77.1741463,9.91292683 76.8192683,9.67634146 76.5353659,9.34512195 C76.2514634,9.01390244 76.0385366,8.63536585 75.8965854,8.18585366 C75.7546341,7.73634146 75.6836585,7.2395122 75.6836585,6.69536585 C75.6836585,6.15121951 75.7546341,5.65439024 75.8965854,5.18121951 C76.0385366,4.70804878 76.2514634,4.30585366 76.5353659,3.95097561 C76.8192683,3.59609756 77.1741463,3.33585366 77.6,3.12292683 C78.0258537,2.93365854 78.5226829,2.81536585 79.0904878,2.81536585 C79.4926829,2.81536585 79.8712195,2.86268293 80.2260976,2.95731707 C80.5809756,3.05195122 80.8885366,3.19390244 81.172439,3.40682927 C81.4563415,3.6197561 81.6692683,3.85634146 81.834878,4.18756098 C82.0004878,4.49512195 82.1187805,4.87365854 82.1660976,5.2995122 L80.9358537,5.2995122 L80.9358537,5.34682927 Z" id="Path"></path>
                            <path d="M89.24,10.2204878 L88.1280488,10.2204878 L88.1280488,9.08487805 L88.1043902,9.08487805 C87.8441463,9.53439024 87.5365854,9.86560976 87.1343902,10.0785366 C86.7321951,10.2914634 86.2826829,10.4097561 85.7621951,10.4097561 C85.2890244,10.4097561 84.8868293,10.3387805 84.5792683,10.2204878 C84.2717073,10.1021951 84.0114634,9.91292683 83.8221951,9.67634146 C83.6329268,9.4397561 83.4909756,9.1795122 83.42,8.84829268 C83.3490244,8.54073171 83.3017073,8.18585366 83.3017073,7.78365854 L83.3017073,3.05195122 L84.4846341,3.05195122 L84.4846341,7.92560976 C84.4846341,8.37512195 84.6029268,8.73 84.8631707,8.9902439 C85.1234146,9.2504878 85.4782927,9.36878049 85.9278049,9.36878049 C86.2826829,9.36878049 86.6139024,9.32146341 86.8741463,9.20317073 C87.1343902,9.08487805 87.3473171,8.94292683 87.5365854,8.73 C87.7021951,8.51707317 87.8441463,8.2804878 87.9387805,8.0202439 C88.0334146,7.73634146 88.0807317,7.45243902 88.0807317,7.12121951 L88.0807317,3.05195122 L89.2636585,3.05195122 L89.2636585,10.2204878 L89.24,10.2204878 Z" id="Path"></path>
                            <rect id="Rectangle" x="90.825122" y="0.307560976" width="1.18292683" height="9.93658537"></rect>
                            <path d="M95.2729268,3.02829268 L96.7160976,3.02829268 L96.7160976,4.06926829 L95.2729268,4.06926829 L95.2729268,8.54073171 C95.2729268,8.68268293 95.2729268,8.80097561 95.2965854,8.87195122 C95.3202439,8.96658537 95.367561,9.01390244 95.4385366,9.06121951 C95.5095122,9.10853659 95.6041463,9.13219512 95.6987805,9.15585366 C95.8170732,9.1795122 95.9590244,9.1795122 96.1482927,9.1795122 L96.692439,9.1795122 L96.692439,10.2204878 L95.7934146,10.2204878 C95.4858537,10.2204878 95.2256098,10.1968293 95.0126829,10.1495122 C94.7997561,10.1021951 94.6104878,10.0312195 94.4921951,9.91292683 C94.3502439,9.79463415 94.2556098,9.65268293 94.1846341,9.4397561 C94.1136585,9.22682927 94.09,8.96658537 94.09,8.63536585 L94.09,4.06926829 L92.8597561,4.06926829 L92.8597561,3.02829268 L94.09,3.02829268 L94.09,0.875365854 L95.2729268,0.875365854 L95.2729268,3.02829268 L95.2729268,3.02829268 Z" id="Path"></path>
                            <path d="M103.600732,10.2204878 L102.48878,10.2204878 L102.48878,9.08487805 L102.465122,9.08487805 C102.204878,9.53439024 101.897317,9.86560976 101.495122,10.0785366 C101.092927,10.2914634 100.643415,10.4097561 100.122927,10.4097561 C99.6497561,10.4097561 99.247561,10.3387805 98.94,10.2204878 C98.632439,10.1021951 98.3721951,9.91292683 98.1829268,9.67634146 C97.9936585,9.4397561 97.8517073,9.1795122 97.7807317,8.84829268 C97.7097561,8.54073171 97.662439,8.18585366 97.662439,7.78365854 L97.662439,3.05195122 L98.8453659,3.05195122 L98.8453659,7.92560976 C98.8453659,8.37512195 98.9636585,8.73 99.2239024,8.9902439 C99.4841463,9.2504878 99.8390244,9.36878049 100.288537,9.36878049 C100.643415,9.36878049 100.974634,9.32146341 101.234878,9.20317073 C101.495122,9.08487805 101.708049,8.94292683 101.897317,8.73 C102.062927,8.51707317 102.204878,8.2804878 102.299512,8.0202439 C102.394146,7.73634146 102.441463,7.45243902 102.441463,7.12121951 L102.441463,3.05195122 L103.62439,3.05195122 L103.62439,10.2204878 L103.600732,10.2204878 Z" id="Path"></path>
                            <path d="M105.162195,3.02829268 L106.274146,3.02829268 L106.274146,4.54243902 L106.297805,4.54243902 C106.581707,3.95097561 106.936585,3.52512195 107.362439,3.24121951 C107.788293,2.95731707 108.30878,2.83902439 108.947561,2.86268293 L108.947561,4.11658537 C108.47439,4.11658537 108.072195,4.18756098 107.740976,4.30585366 C107.409756,4.42414634 107.149512,4.63707317 106.936585,4.87365854 C106.723659,5.13390244 106.581707,5.44146341 106.487073,5.79634146 C106.392439,6.15121951 106.345122,6.57707317 106.345122,7.02658537 L106.345122,10.2204878 L105.162195,10.2204878 L105.162195,3.02829268 Z" id="Path"></path>
                            <path d="M116.021463,10.1968293 C115.808537,10.315122 115.524634,10.3860976 115.169756,10.3860976 C114.862195,10.3860976 114.62561,10.2914634 114.436341,10.1258537 C114.247073,9.9602439 114.176098,9.67634146 114.176098,9.27414634 C113.844878,9.65268293 113.466341,9.93658537 113.040488,10.1258537 C112.614634,10.2914634 112.141463,10.3860976 111.644634,10.3860976 C111.313415,10.3860976 111.005854,10.3387805 110.721951,10.2678049 C110.438049,10.1968293 110.177805,10.0785366 109.964878,9.91292683 C109.751951,9.74731707 109.586341,9.53439024 109.468049,9.29780488 C109.349756,9.03756098 109.27878,8.73 109.27878,8.37512195 C109.27878,7.97292683 109.349756,7.64170732 109.491707,7.38146341 C109.633659,7.12121951 109.822927,6.90829268 110.035854,6.76634146 C110.272439,6.60073171 110.532683,6.48243902 110.816585,6.38780488 C111.100488,6.29317073 111.408049,6.22219512 111.71561,6.17487805 C112.046829,6.10390244 112.35439,6.05658537 112.638293,6.03292683 C112.922195,6.00926829 113.182439,5.96195122 113.419024,5.89097561 C113.631951,5.82 113.82122,5.74902439 113.939512,5.63073171 C114.057805,5.51243902 114.12878,5.34682927 114.12878,5.13390244 C114.12878,4.87365854 114.081463,4.66073171 113.986829,4.51878049 C113.892195,4.35317073 113.773902,4.23487805 113.608293,4.16390244 C113.466341,4.06926829 113.277073,4.02195122 113.087805,3.99829268 C112.898537,3.97463415 112.709268,3.95097561 112.52,3.95097561 C112.023171,3.95097561 111.597317,4.04560976 111.266098,4.23487805 C110.934878,4.42414634 110.74561,4.77902439 110.721951,5.32317073 L109.539024,5.32317073 C109.562683,4.87365854 109.657317,4.49512195 109.822927,4.18756098 C109.988537,3.88 110.201463,3.64341463 110.485366,3.45414634 C110.769268,3.26487805 111.076829,3.12292683 111.455366,3.05195122 C111.810244,2.95731707 112.18878,2.93365854 112.590976,2.93365854 C112.922195,2.93365854 113.229756,2.95731707 113.560976,3.00463415 C113.892195,3.05195122 114.176098,3.14658537 114.436341,3.28853659 C114.696585,3.4304878 114.909512,3.64341463 115.051463,3.90365854 C115.217073,4.16390244 115.288049,4.49512195 115.288049,4.92097561 L115.288049,8.61170732 C115.288049,8.89560976 115.311707,9.08487805 115.335366,9.22682927 C115.359024,9.34512195 115.477317,9.41609756 115.666585,9.41609756 C115.784878,9.41609756 115.903171,9.39243902 116.021463,9.34512195 L116.021463,10.1968293 L116.021463,10.1968293 Z M114.105122,6.50609756 C113.986829,6.60073171 113.844878,6.64804878 113.679268,6.69536585 C113.513659,6.74268293 113.32439,6.79 113.15878,6.81365854 C112.969512,6.83731707 112.780244,6.88463415 112.567317,6.90829268 C112.35439,6.93195122 112.165122,6.95560976 111.952195,7.00292683 C111.762927,7.0502439 111.573659,7.09756098 111.38439,7.14487805 C111.21878,7.19219512 111.053171,7.28682927 110.934878,7.38146341 C110.816585,7.47609756 110.698293,7.59439024 110.627317,7.76 C110.556341,7.90195122 110.509024,8.09121951 110.509024,8.32780488 C110.509024,8.51707317 110.556341,8.68268293 110.627317,8.82463415 C110.698293,8.96658537 110.816585,9.06121951 110.934878,9.15585366 C111.053171,9.2504878 111.195122,9.29780488 111.38439,9.34512195 C111.55,9.39243902 111.71561,9.39243902 111.904878,9.39243902 C112.283415,9.39243902 112.638293,9.34512195 112.898537,9.22682927 C113.182439,9.13219512 113.395366,8.9902439 113.584634,8.82463415 C113.750244,8.65902439 113.892195,8.49341463 113.963171,8.30414634 C114.057805,8.11487805 114.081463,7.92560976 114.081463,7.76 L114.081463,6.50609756 L114.105122,6.50609756 Z" id="Shape"></path>
                            <rect id="Rectangle" x="117.03878" y="0.307560976" width="1.18292683" height="9.93658537"></rect>
                            <path d="M129.861707,3.19390244 C129.790732,2.48414634 129.530488,1.96365854 129.080976,1.63243902 C128.631463,1.30121951 128.087317,1.15926829 127.40122,1.15926829 C127.117317,1.15926829 126.857073,1.18292683 126.573171,1.25390244 C126.312927,1.30121951 126.076341,1.39585366 125.863415,1.53780488 C125.650488,1.65609756 125.484878,1.84536585 125.366585,2.05829268 C125.248293,2.27121951 125.177317,2.55512195 125.177317,2.86268293 C125.177317,3.1702439 125.271951,3.40682927 125.437561,3.59609756 C125.626829,3.78536585 125.863415,3.95097561 126.170976,4.06926829 C126.478537,4.18756098 126.809756,4.28219512 127.188293,4.37682927 C127.566829,4.44780488 127.969024,4.54243902 128.347561,4.63707317 C128.749756,4.73170732 129.128293,4.85 129.506829,4.96829268 C129.885366,5.08658537 130.216585,5.25219512 130.524146,5.46512195 C130.831707,5.67804878 131.068293,5.93829268 131.233902,6.2695122 C131.423171,6.60073171 131.494146,7.00292683 131.494146,7.47609756 C131.494146,7.99658537 131.375854,8.44609756 131.139268,8.82463415 C130.902683,9.20317073 130.595122,9.51073171 130.240244,9.74731707 C129.861707,9.98390244 129.459512,10.1495122 128.986341,10.2678049 C128.536829,10.3860976 128.063659,10.4334146 127.614146,10.4334146 C127.046341,10.4334146 126.525854,10.362439 126.029024,10.2204878 C125.532195,10.0785366 125.106341,9.86560976 124.727805,9.58170732 C124.349268,9.29780488 124.065366,8.91926829 123.82878,8.49341463 C123.615854,8.04390244 123.497561,7.52341463 123.497561,6.93195122 L124.751463,6.93195122 C124.751463,7.35780488 124.822439,7.71268293 124.988049,8.0202439 C125.153659,8.32780488 125.366585,8.56439024 125.626829,8.75365854 C125.887073,8.94292683 126.194634,9.08487805 126.549512,9.1795122 C126.90439,9.27414634 127.259268,9.32146341 127.637805,9.32146341 C127.945366,9.32146341 128.229268,9.29780488 128.536829,9.22682927 C128.84439,9.1795122 129.104634,9.08487805 129.34122,8.94292683 C129.577805,8.80097561 129.767073,8.63536585 129.932683,8.39878049 C130.074634,8.16219512 130.14561,7.87829268 130.14561,7.4997561 C130.14561,7.16853659 130.050976,6.88463415 129.885366,6.67170732 C129.696098,6.45878049 129.459512,6.29317073 129.17561,6.15121951 C128.868049,6.00926829 128.536829,5.91463415 128.158293,5.82 C127.779756,5.72536585 127.377561,5.65439024 126.999024,5.5597561 C126.596829,5.46512195 126.218293,5.3704878 125.839756,5.25219512 C125.46122,5.13390244 125.13,4.99195122 124.822439,4.77902439 C124.514878,4.5897561 124.278293,4.3295122 124.089024,4.04560976 C123.899756,3.73804878 123.82878,3.38317073 123.82878,2.91 C123.82878,2.41317073 123.923415,1.98731707 124.136341,1.60878049 C124.349268,1.25390244 124.609512,0.946341463 124.940732,0.709756098 C125.271951,0.473170732 125.674146,0.307560976 126.1,0.189268293 C126.525854,0.0709756098 126.975366,0.0236585366 127.424878,0.0236585366 C127.945366,0.0236585366 128.418537,0.0946341463 128.84439,0.212926829 C129.270244,0.331219512 129.64878,0.520487805 129.98,0.780731707 C130.31122,1.04097561 130.571463,1.37219512 130.760732,1.75073171 C130.95,2.15292683 131.068293,2.62609756 131.091951,3.1702439 L129.861707,3.1702439 L129.861707,3.19390244 Z" id="Path"></path>
                            <path d="M137.621707,5.34682927 C137.527073,4.89731707 137.337805,4.54243902 137.030244,4.28219512 C136.722683,4.02195122 136.344146,3.90365854 135.847317,3.90365854 C135.421463,3.90365854 135.066585,3.97463415 134.782683,4.1402439 C134.49878,4.30585366 134.262195,4.49512195 134.096585,4.75536585 C133.930976,5.01560976 133.812683,5.32317073 133.718049,5.65439024 C133.647073,5.98560976 133.599756,6.3404878 133.599756,6.69536585 C133.599756,7.02658537 133.647073,7.35780488 133.718049,7.66536585 C133.789024,7.97292683 133.930976,8.25682927 134.096585,8.51707317 C134.262195,8.75365854 134.475122,8.96658537 134.735366,9.10853659 C134.99561,9.2504878 135.326829,9.32146341 135.705366,9.32146341 C136.273171,9.32146341 136.722683,9.15585366 137.077561,8.84829268 C137.40878,8.54073171 137.621707,8.11487805 137.692683,7.57073171 L138.899268,7.57073171 C138.780976,8.44609756 138.426098,9.13219512 137.90561,9.62902439 C137.361463,10.1258537 136.651707,10.362439 135.729024,10.362439 C135.184878,10.362439 134.688049,10.2678049 134.285854,10.1021951 C133.86,9.91292683 133.505122,9.67634146 133.22122,9.34512195 C132.937317,9.01390244 132.72439,8.63536585 132.582439,8.18585366 C132.440488,7.73634146 132.369512,7.2395122 132.369512,6.69536585 C132.369512,6.15121951 132.440488,5.65439024 132.582439,5.18121951 C132.72439,4.70804878 132.937317,4.30585366 133.22122,3.95097561 C133.505122,3.59609756 133.86,3.33585366 134.285854,3.12292683 C134.711707,2.93365854 135.208537,2.81536585 135.776341,2.81536585 C136.178537,2.81536585 136.557073,2.86268293 136.911951,2.95731707 C137.266829,3.05195122 137.57439,3.19390244 137.858293,3.40682927 C138.142195,3.6197561 138.355122,3.85634146 138.54439,4.18756098 C138.71,4.49512195 138.828293,4.87365854 138.87561,5.2995122 L137.621707,5.2995122 L137.621707,5.34682927 Z" id="Path"></path>
                            <path d="M140.01122,0.307560976 L141.194146,0.307560976 L141.194146,4.09292683 L141.217805,4.09292683 C141.312439,3.88 141.45439,3.69073171 141.62,3.54878049 C141.78561,3.38317073 141.974878,3.26487805 142.187805,3.1702439 C142.400732,3.07560976 142.613659,3.00463415 142.826585,2.95731707 C143.063171,2.91 143.276098,2.88634146 143.489024,2.88634146 C143.962195,2.88634146 144.36439,2.95731707 144.671951,3.07560976 C144.979512,3.19390244 145.239756,3.38317073 145.429024,3.6197561 C145.618293,3.85634146 145.760244,4.11658537 145.83122,4.44780488 C145.902195,4.77902439 145.949512,5.13390244 145.949512,5.51243902 L145.949512,10.2441463 L144.766585,10.2441463 L144.766585,5.3704878 C144.766585,4.92097561 144.648293,4.56609756 144.388049,4.30585366 C144.127805,4.04560976 143.772927,3.92731707 143.323415,3.92731707 C142.968537,3.92731707 142.637317,3.97463415 142.377073,4.09292683 C142.116829,4.21121951 141.903902,4.35317073 141.714634,4.56609756 C141.549024,4.77902439 141.407073,5.01560976 141.312439,5.27585366 C141.217805,5.5597561 141.170488,5.84365854 141.170488,6.17487805 L141.170488,10.2441463 L139.987561,10.2441463 L139.987561,0.307560976 L140.01122,0.307560976 Z" id="Path"></path>
                            <path d="M147.132439,6.62439024 C147.132439,6.10390244 147.203415,5.60707317 147.345366,5.13390244 C147.487317,4.68439024 147.723902,4.28219512 148.007805,3.92731707 C148.315366,3.59609756 148.670244,3.31219512 149.096098,3.12292683 C149.521951,2.93365854 150.01878,2.83902439 150.610244,2.83902439 C151.178049,2.83902439 151.674878,2.93365854 152.100732,3.12292683 C152.526585,3.31219512 152.905122,3.57243902 153.189024,3.92731707 C153.496585,4.25853659 153.709512,4.66073171 153.851463,5.13390244 C153.993415,5.58341463 154.06439,6.0802439 154.06439,6.62439024 C154.06439,7.14487805 153.993415,7.64170732 153.851463,8.09121951 C153.709512,8.54073171 153.472927,8.94292683 153.189024,9.27414634 C152.881463,9.60536585 152.526585,9.88926829 152.100732,10.0785366 C151.674878,10.2678049 151.15439,10.362439 150.610244,10.362439 C150.042439,10.362439 149.521951,10.2678049 149.096098,10.0785366 C148.670244,9.88926829 148.291707,9.60536585 148.007805,9.27414634 C147.700244,8.94292683 147.487317,8.54073171 147.345366,8.09121951 C147.203415,7.66536585 147.132439,7.16853659 147.132439,6.62439024 M148.362683,6.62439024 C148.362683,7.0502439 148.41,7.45243902 148.528293,7.78365854 C148.646585,8.11487805 148.812195,8.39878049 149.001463,8.63536585 C149.21439,8.87195122 149.450976,9.03756098 149.71122,9.15585366 C149.995122,9.27414634 150.279024,9.34512195 150.586585,9.34512195 C150.894146,9.34512195 151.178049,9.27414634 151.461951,9.15585366 C151.745854,9.03756098 151.982439,8.87195122 152.171707,8.63536585 C152.384634,8.39878049 152.526585,8.11487805 152.644878,7.78365854 C152.763171,7.45243902 152.810488,7.0502439 152.810488,6.62439024 C152.810488,6.19853659 152.763171,5.79634146 152.644878,5.46512195 C152.526585,5.13390244 152.360976,4.85 152.171707,4.61341463 C151.95878,4.37682927 151.722195,4.21121951 151.461951,4.09292683 C151.178049,3.97463415 150.894146,3.90365854 150.586585,3.90365854 C150.279024,3.90365854 149.995122,3.97463415 149.71122,4.09292683 C149.427317,4.21121951 149.190732,4.4004878 149.001463,4.61341463 C148.788537,4.85 148.646585,5.13390244 148.528293,5.46512195 C148.433659,5.82 148.362683,6.19853659 148.362683,6.62439024" id="Shape"></path>
                            <path d="M154.916098,6.62439024 C154.916098,6.10390244 154.987073,5.60707317 155.129024,5.13390244 C155.270976,4.68439024 155.507561,4.28219512 155.791463,3.92731707 C156.099024,3.59609756 156.453902,3.31219512 156.879756,3.12292683 C157.30561,2.93365854 157.802439,2.83902439 158.393902,2.83902439 C158.961707,2.83902439 159.458537,2.93365854 159.88439,3.12292683 C160.310244,3.31219512 160.68878,3.57243902 160.972683,3.92731707 C161.280244,4.25853659 161.493171,4.66073171 161.635122,5.13390244 C161.777073,5.58341463 161.848049,6.0802439 161.848049,6.62439024 C161.848049,7.14487805 161.777073,7.64170732 161.635122,8.09121951 C161.493171,8.54073171 161.256585,8.94292683 160.972683,9.27414634 C160.665122,9.60536585 160.310244,9.88926829 159.88439,10.0785366 C159.458537,10.2678049 158.938049,10.362439 158.393902,10.362439 C157.826098,10.362439 157.30561,10.2678049 156.879756,10.0785366 C156.453902,9.88926829 156.075366,9.60536585 155.791463,9.27414634 C155.483902,8.94292683 155.270976,8.54073171 155.129024,8.09121951 C154.987073,7.66536585 154.916098,7.16853659 154.916098,6.62439024 M156.17,6.62439024 C156.17,7.0502439 156.217317,7.45243902 156.33561,7.78365854 C156.453902,8.11487805 156.619512,8.39878049 156.80878,8.63536585 C157.021707,8.87195122 157.258293,9.03756098 157.518537,9.15585366 C157.802439,9.27414634 158.086341,9.34512195 158.393902,9.34512195 C158.701463,9.34512195 158.985366,9.27414634 159.269268,9.15585366 C159.553171,9.03756098 159.789756,8.87195122 159.979024,8.63536585 C160.191951,8.39878049 160.333902,8.11487805 160.452195,7.78365854 C160.570488,7.45243902 160.617805,7.0502439 160.617805,6.62439024 C160.617805,6.19853659 160.570488,5.79634146 160.452195,5.46512195 C160.333902,5.13390244 160.168293,4.85 159.979024,4.61341463 C159.766098,4.37682927 159.529512,4.21121951 159.269268,4.09292683 C158.985366,3.97463415 158.701463,3.90365854 158.393902,3.90365854 C158.086341,3.90365854 157.802439,3.97463415 157.518537,4.09292683 C157.234634,4.21121951 156.998049,4.4004878 156.80878,4.61341463 C156.595854,4.85 156.453902,5.13390244 156.33561,5.46512195 C156.217317,5.82 156.17,6.19853659 156.17,6.62439024" id="Shape"></path>
                            <rect id="Rectangle" x="163.12561" y="0.307560976" width="1.18292683" height="9.93658537"></rect>
                        </g>
                    </g>
                </g>
            </g>
        </g>
    </g>
</svg>